<?xml version="1.0" encoding="UTF-8" standalone="no"?>
<!-- Created with Inkscape (http://www.inkscape.org/) -->
<svg
   xmlns:svg="http://www.w3.org/2000/svg"
   xmlns="http://www.w3.org/2000/svg"
   version="1.0"
   width="968.57141"
   height="140"
   id="svg9574">
  <defs
     id="defs9576" />
  <g
     transform="translate(585.71429,-263.79074)"
     id="layer1">
    <path
       d="M -469.8691,286.42657 L -450.63604,286.37052 L -367.04193,378.19593 L -367.33019,286.10629 L -353.77417,286.05824 L -353.42186,398.00549 L -366.98588,398.04553 L -456.9056,298.38918 L -456.59333,398.32577 L -469.51678,398.36581 L -469.8691,286.42657 z"
       id="path1635"
       style="fill:#0c2e59;fill-opacity:1;fill-rule:nonzero;stroke:none" />
    <path
       d="M -335.40589,397.94944 L -320.32852,397.9014 L -305.78763,368.75556 L -233.57961,368.53136 L -219.00669,397.58111 L -203.76918,397.53307 L -261.55642,285.76999 L -278.18716,285.82604 L -335.40589,397.94944 z M -299.65419,356.72089 L -269.83576,296.41142 L -239.61696,356.53673 L -299.65419,356.72089 z"
       id="path1639"
       style="fill:#0c2e59;fill-opacity:1;fill-rule:nonzero;stroke:none" />
    <path
       d="M -81.540822,351.11592 C -81.404701,391.59981 -112.95267,400.00727 -138.98375,400.09534 C -165.00682,400.17541 -196.59482,391.96814 -196.72294,351.48425 L -196.93112,285.5618 L -183.38311,285.52177 L -183.15891,351.4362 C -183.08685,377.147 -166.57621,388.79733 -139.01578,388.70925 C -111.45534,388.62918 -95.000755,376.86675 -95.080826,351.16396 L -95.28901,285.24152 L -81.740999,285.20148 L -81.540822,351.11592 z"
       id="path1643"
       style="fill:#0c2e59;fill-opacity:1;fill-rule:nonzero;stroke:none" />
    <path
       d="M -11.08636,296.97993 L -63.092466,297.14808 L -63.132502,285.14543 L 54.4037,284.7691 L 54.443736,296.77174 L 2.4616507,296.93989 L 2.7739276,396.8845 L -10.774083,396.92453 L -11.08636,296.97993 z"
       id="path1647"
       style="fill:#0c2e59;fill-opacity:1;fill-rule:nonzero;stroke:none" />
    <path
       d="M 74.773759,284.70498 L 88.32177,284.66494 L 88.68209,396.61219 L 75.134079,396.64422 L 74.773759,284.70498 z"
       id="path1651"
       style="fill:#0c2e59;fill-opacity:1;fill-rule:nonzero;stroke:none" />
    <path
       d="M 234.60429,366.43344 C 222.6577,389.68605 201.9033,399.01432 174.64713,399.1024 C 131.24065,399.24653 110.67842,373.28751 110.57433,340.80271 C 110.45422,302.28857 136.39722,281.74235 174.13468,281.62225 C 198.13996,281.55018 222.68172,290.71831 232.75465,313.47449 L 221.05628,318.89529 C 213.14527,300.59907 195.72182,292.9603 174.31084,293.02436 C 142.29045,293.12044 124.34654,310.5599 124.45063,342.46018 C 124.5227,368.17098 141.97016,387.17983 175.84019,387.06773 C 198.01986,387.00367 213.39349,377.73145 222.56161,360.62028 L 234.60429,366.43344 z"
       id="path1655"
       style="fill:#0c2e59;fill-opacity:1;fill-rule:nonzero;stroke:none" />
    <path
       d="M 236.62925,396.13984 L 251.73064,396.09179 L 266.26353,366.94595 L 338.46353,366.72176 L 353.02845,395.77151 L 368.28197,395.72347 L 310.48673,283.96038 L 293.86399,284.01643 L 236.62925,396.13984 z M 272.39696,354.91929 L 302.2154,294.60982 L 332.43419,354.72712 L 272.39696,354.91929 z"
       id="path1659"
       style="fill:#0c2e59;fill-opacity:1;fill-rule:nonzero;stroke:none" />
    <path
       d="M -501.80134,312.21744 C -501.80134,312.21744 -505.50863,370.40502 -553.39909,399.10246 L -528.28082,394.17009 C -528.28082,394.17009 -501.28088,373.55181 -501.80134,312.21744"
       id="path1663"
       style="fill:#0c2e59;fill-opacity:1;fill-rule:nonzero;stroke:none" />
    <path
       d="M -489.39047,270.84482 C -500.43226,311.28067 -552.87875,375.73781 -579.71054,399.14256 L -547.30581,395.50734 C -530.49891,377.85169 -499.94382,312.02533 -489.39047,270.84482"
       id="path1667"
       style="fill:#0c2e59;fill-opacity:1;fill-rule:nonzero;stroke:none" />
  </g>
</svg>
